<?xml version="1.0" encoding="UTF-8" standalone="no"?><svg xmlns="http://www.w3.org/2000/svg" xmlns:xlink="http://www.w3.org/1999/xlink" contentScriptType="application/ecmascript" contentStyleType="text/css" height="472px" preserveAspectRatio="none" style="width:335px;height:472px;" version="1.1" viewBox="0 0 335 472" width="335px" zoomAndPan="magnify"><defs><filter height="300%" id="f1vytba180x3ke" width="300%" x="-1" y="-1"><feGaussianBlur result="blurOut" stdDeviation="2.0"/><feColorMatrix in="blurOut" result="blurOut2" type="matrix" values="0 0 0 0 0 0 0 0 0 0 0 0 0 0 0 0 0 0 .4 0"/><feOffset dx="4.0" dy="4.0" in="blurOut2" result="blurOut3"/><feBlend in="SourceGraphic" in2="blurOut3" mode="normal"/></filter></defs><g><!--MD5=[ff74e0f0bb3fa51f8c743cb54bdb5b13]
class Train--><rect codeLine="1" fill="#FEFECE" filter="url(#f1vytba180x3ke)" height="99.2188" id="Train" style="stroke:#A80036;stroke-width:1.5;" width="252" x="7" y="7"/><ellipse cx="114.25" cy="23" fill="#ADD1B2" rx="11" ry="11" style="stroke:#A80036;stroke-width:1.0;"/><path d="M116.5938,18.6719 C115.6563,18.2344 115.0625,18.0938 114.1875,18.0938 C111.5625,18.0938 109.5625,20.1719 109.5625,22.8906 L109.5625,24.0156 C109.5625,26.5938 111.6719,28.4844 114.5625,28.4844 C115.7813,28.4844 116.9375,28.1875 117.6875,27.6406 C118.2656,27.2344 118.5938,26.7813 118.5938,26.3906 C118.5938,25.9375 118.2031,25.5469 117.7344,25.5469 C117.5156,25.5469 117.3125,25.625 117.125,25.8125 C116.6719,26.2969 116.6719,26.2969 116.4844,26.3906 C116.0625,26.6563 115.375,26.7813 114.6094,26.7813 C112.5625,26.7813 111.2656,25.6875 111.2656,23.9844 L111.2656,22.8906 C111.2656,21.1094 112.5156,19.7969 114.25,19.7969 C114.8281,19.7969 115.4375,19.9531 115.9063,20.2031 C116.3906,20.4844 116.5625,20.7031 116.6563,21.1094 C116.7188,21.5156 116.75,21.6406 116.8906,21.7656 C117.0313,21.9063 117.2656,22.0156 117.4844,22.0156 C117.75,22.0156 118.0156,21.875 118.1875,21.6563 C118.2969,21.5 118.3281,21.3125 118.3281,20.8906 L118.3281,19.4688 C118.3281,19.0313 118.3125,18.9063 118.2188,18.75 C118.0625,18.4844 117.7813,18.3438 117.4844,18.3438 C117.1875,18.3438 116.9844,18.4375 116.7656,18.75 L116.5938,18.6719 Z " fill="#000000"/><text fill="#000000" font-family="sans-serif" font-size="12" lengthAdjust="spacing" textLength="29" x="134.75" y="27.1543">Train</text><line style="stroke:#A80036;stroke-width:1.5;" x1="8" x2="258" y1="39" y2="39"/><rect fill="none" height="6" style="stroke:#C82930;stroke-width:1.0;" width="6" x="15" y="47"/><text fill="#000000" font-family="sans-serif" font-size="11" lengthAdjust="spacing" textLength="71" x="27" y="53.2104">name: string</text><line style="stroke:#A80036;stroke-width:1.5;" x1="8" x2="258" y1="59.8047" y2="59.8047"/><ellipse cx="18" cy="70.8047" fill="#84BE84" rx="3" ry="3" style="stroke:#038048;stroke-width:1.0;"/><text fill="#000000" font-family="sans-serif" font-size="11" lengthAdjust="spacing" textLength="186" x="27" y="74.0151">getComponents(): Components[]</text><ellipse cx="18" cy="83.6094" fill="#84BE84" rx="3" ry="3" style="stroke:#038048;stroke-width:1.0;"/><text fill="#000000" font-family="sans-serif" font-size="11" lengthAdjust="spacing" textLength="202" x="27" y="86.8198">addComponent(Component c): void</text><ellipse cx="18" cy="96.4141" fill="#84BE84" rx="3" ry="3" style="stroke:#038048;stroke-width:1.0;"/><text fill="#000000" font-family="sans-serif" font-size="11" lengthAdjust="spacing" textLength="226" x="27" y="99.6245">removeComponent(Component c): void</text><!--MD5=[4296a1ab0576a383a1a509d52c22ebf0]
class Type--><rect codeLine="8" fill="#FEFECE" filter="url(#f1vytba180x3ke)" height="112.0234" id="Type" style="stroke:#A80036;stroke-width:1.5;" width="167" x="49.5" y="346"/><ellipse cx="113.75" cy="362" fill="#ADD1B2" rx="11" ry="11" style="stroke:#A80036;stroke-width:1.0;"/><path d="M116.0938,357.6719 C115.1563,357.2344 114.5625,357.0938 113.6875,357.0938 C111.0625,357.0938 109.0625,359.1719 109.0625,361.8906 L109.0625,363.0156 C109.0625,365.5938 111.1719,367.4844 114.0625,367.4844 C115.2813,367.4844 116.4375,367.1875 117.1875,366.6406 C117.7656,366.2344 118.0938,365.7813 118.0938,365.3906 C118.0938,364.9375 117.7031,364.5469 117.2344,364.5469 C117.0156,364.5469 116.8125,364.625 116.625,364.8125 C116.1719,365.2969 116.1719,365.2969 115.9844,365.3906 C115.5625,365.6563 114.875,365.7813 114.1094,365.7813 C112.0625,365.7813 110.7656,364.6875 110.7656,362.9844 L110.7656,361.8906 C110.7656,360.1094 112.0156,358.7969 113.75,358.7969 C114.3281,358.7969 114.9375,358.9531 115.4063,359.2031 C115.8906,359.4844 116.0625,359.7031 116.1563,360.1094 C116.2188,360.5156 116.25,360.6406 116.3906,360.7656 C116.5313,360.9063 116.7656,361.0156 116.9844,361.0156 C117.25,361.0156 117.5156,360.875 117.6875,360.6563 C117.7969,360.5 117.8281,360.3125 117.8281,359.8906 L117.8281,358.4688 C117.8281,358.0313 117.8125,357.9063 117.7188,357.75 C117.5625,357.4844 117.2813,357.3438 116.9844,357.3438 C116.6875,357.3438 116.4844,357.4375 116.2656,357.75 L116.0938,357.6719 Z " fill="#000000"/><text fill="#000000" font-family="sans-serif" font-size="12" lengthAdjust="spacing" textLength="30" x="134.25" y="366.1543">Type</text><line style="stroke:#A80036;stroke-width:1.5;" x1="50.5" x2="215.5" y1="378" y2="378"/><rect fill="none" height="6" style="stroke:#C82930;stroke-width:1.0;" width="6" x="57.5" y="386"/><text fill="#000000" font-family="sans-serif" font-size="11" lengthAdjust="spacing" textLength="71" x="69.5" y="392.2104">name: string</text><rect fill="none" height="6" style="stroke:#C82930;stroke-width:1.0;" width="6" x="57.5" y="398.8047"/><text fill="#000000" font-family="sans-serif" font-size="11" lengthAdjust="spacing" textLength="111" x="69.5" y="405.0151">numberOfSeats: int</text><rect fill="none" height="6" style="stroke:#C82930;stroke-width:1.0;" width="6" x="57.5" y="411.6094"/><text fill="#000000" font-family="sans-serif" font-size="11" lengthAdjust="spacing" textLength="115" x="69.5" y="417.8198">payloadCapacity: int</text><line style="stroke:#A80036;stroke-width:1.5;" x1="50.5" x2="215.5" y1="424.4141" y2="424.4141"/><ellipse cx="60.5" cy="435.4141" fill="#84BE84" rx="3" ry="3" style="stroke:#038048;stroke-width:1.0;"/><text fill="#000000" font-family="sans-serif" font-size="11" lengthAdjust="spacing" textLength="139" x="69.5" y="438.6245">getNumberOfSeats(): int</text><ellipse cx="60.5" cy="448.2188" fill="#84BE84" rx="3" ry="3" style="stroke:#038048;stroke-width:1.0;"/><text fill="#000000" font-family="sans-serif" font-size="11" lengthAdjust="spacing" textLength="141" x="69.5" y="451.4292">getPayloadCapacity(): int</text><!--MD5=[4e13963c9dc916a21a8436ef39422b32]
class Component--><rect codeLine="16" fill="#FEFECE" filter="url(#f1vytba180x3ke)" height="86.4141" id="Component" style="stroke:#A80036;stroke-width:1.5;" width="118" x="74" y="183"/><ellipse cx="96.65" cy="199" fill="#ADD1B2" rx="11" ry="11" style="stroke:#A80036;stroke-width:1.0;"/><path d="M98.9938,194.6719 C98.0563,194.2344 97.4625,194.0938 96.5875,194.0938 C93.9625,194.0938 91.9625,196.1719 91.9625,198.8906 L91.9625,200.0156 C91.9625,202.5938 94.0719,204.4844 96.9625,204.4844 C98.1813,204.4844 99.3375,204.1875 100.0875,203.6406 C100.6656,203.2344 100.9938,202.7813 100.9938,202.3906 C100.9938,201.9375 100.6031,201.5469 100.1344,201.5469 C99.9156,201.5469 99.7125,201.625 99.525,201.8125 C99.0719,202.2969 99.0719,202.2969 98.8844,202.3906 C98.4625,202.6563 97.775,202.7813 97.0094,202.7813 C94.9625,202.7813 93.6656,201.6875 93.6656,199.9844 L93.6656,198.8906 C93.6656,197.1094 94.9156,195.7969 96.65,195.7969 C97.2281,195.7969 97.8375,195.9531 98.3063,196.2031 C98.7906,196.4844 98.9625,196.7031 99.0563,197.1094 C99.1188,197.5156 99.15,197.6406 99.2906,197.7656 C99.4313,197.9063 99.6656,198.0156 99.8844,198.0156 C100.15,198.0156 100.4156,197.875 100.5875,197.6563 C100.6969,197.5 100.7281,197.3125 100.7281,196.8906 L100.7281,195.4688 C100.7281,195.0313 100.7125,194.9063 100.6188,194.75 C100.4625,194.4844 100.1813,194.3438 99.8844,194.3438 C99.5875,194.3438 99.3844,194.4375 99.1656,194.75 L98.9938,194.6719 Z " fill="#000000"/><text fill="#000000" font-family="sans-serif" font-size="12" lengthAdjust="spacing" textLength="69" x="112.35" y="203.1543">Component</text><line style="stroke:#A80036;stroke-width:1.5;" x1="75" x2="191" y1="215" y2="215"/><rect fill="none" height="6" style="stroke:#C82930;stroke-width:1.0;" width="6" x="82" y="223"/><text fill="#000000" font-family="sans-serif" font-size="11" lengthAdjust="spacing" textLength="51" x="94" y="229.2104">order: int</text><line style="stroke:#A80036;stroke-width:1.5;" x1="75" x2="191" y1="235.8047" y2="235.8047"/><ellipse cx="85" cy="246.8047" fill="#84BE84" rx="3" ry="3" style="stroke:#038048;stroke-width:1.0;"/><text fill="#000000" font-family="sans-serif" font-size="11" lengthAdjust="spacing" textLength="80" x="94" y="250.0151">getOrder(): int</text><ellipse cx="85" cy="259.6094" fill="#84BE84" rx="3" ry="3" style="stroke:#038048;stroke-width:1.0;"/><text fill="#000000" font-family="sans-serif" font-size="11" lengthAdjust="spacing" textLength="92" x="94" y="262.8198">getType(): Type</text><!--MD5=[34f4d172018e4a9fba0401489209d956]
link Train to Component--><path codeLine="22" d="M133,106.398 C133,128.837 133,155.337 133,177.591 " fill="none" id="Train-to-Component" style="stroke:#A80036;stroke-width:1.0;"/><polygon fill="#A80036" points="133,182.857,137,173.857,133,177.857,129,173.857,133,182.857" style="stroke:#A80036;stroke-width:1.0;"/><rect fill="none" height="6" style="stroke:#C82930;stroke-width:1.0;" width="6" x="136" y="142.0664"/><text fill="#000000" font-family="sans-serif" font-size="13" lengthAdjust="spacing" textLength="181" x="146" y="149.0669">components: Components[]</text><!--MD5=[075d5c60b9ef118906048290d9b82809]
link Component to Type--><path codeLine="23" d="M133,269.121 C133,290.533 133,316.941 133,340.487 " fill="none" id="Component-to-Type" style="stroke:#A80036;stroke-width:1.0;"/><polygon fill="#A80036" points="133,345.777,137,336.777,133,340.777,129,336.777,133,345.777" style="stroke:#A80036;stroke-width:1.0;"/><rect fill="none" height="6" style="stroke:#C82930;stroke-width:1.0;" width="6" x="136" y="305.0664"/><text fill="#000000" font-family="sans-serif" font-size="13" lengthAdjust="spacing" textLength="70" x="146" y="312.0669">type: Type</text><!--MD5=[7bf14d4b5c3c62050f11282fb5a620ea]
@startuml
class Train {
  - name: string
  + getComponents(): Components[]
  + addComponent(Component c): void
  + removeComponent(Component c): void
}

class Type {
  - name: string
  - numberOfSeats: int
  - payloadCapacity: int
  + getNumberOfSeats(): int
  + getPayloadCapacity(): int
}

class Component {
  - order: int
  + getOrder(): int
  + getType(): Type
}

Train - -> Component: - components: Components[]
Component - -> Type: - type: Type
@enduml

PlantUML version 1.2021.3beta6(Unknown compile time)
(GPL source distribution)
Java Runtime: Java(TM) SE Runtime Environment
JVM: Java HotSpot(TM) 64-Bit Server VM
Default Encoding: UTF-8
Language: en
Country: US
--></g></svg>