<?xml version="1.0" encoding="UTF-8" standalone="no"?><svg xmlns="http://www.w3.org/2000/svg" xmlns:xlink="http://www.w3.org/1999/xlink" contentScriptType="application/ecmascript" contentStyleType="text/css" height="776px" preserveAspectRatio="none" style="width:497px;height:776px;background:#000000;" version="1.1" viewBox="0 0 497 776" width="497px" zoomAndPan="magnify"><defs><filter height="300%" id="f6naaw4y9buhc" width="300%" x="-1" y="-1"><feGaussianBlur result="blurOut" stdDeviation="2.0"/><feColorMatrix in="blurOut" result="blurOut2" type="matrix" values="0 0 0 0 0 0 0 0 0 0 0 0 0 0 0 0 0 0 .4 0"/><feOffset dx="4.0" dy="4.0" in="blurOut2" result="blurOut3"/><feBlend in="SourceGraphic" in2="blurOut3" mode="normal"/></filter></defs><g><!--MD5=[ff74e0f0bb3fa51f8c743cb54bdb5b13]
class Train--><rect codeLine="3" fill="#070707" filter="url(#f6naaw4y9buhc)" height="112.0234" id="Train" style="stroke:#C7C7C7;stroke-width:1.5;" width="252" x="7" y="7"/><ellipse cx="114.25" cy="23" fill="#3D3D3D" rx="11" ry="11" style="stroke:#C7C7C7;stroke-width:1.0;"/><path d="M116.5938,18.6719 C115.6563,18.2344 115.0625,18.0938 114.1875,18.0938 C111.5625,18.0938 109.5625,20.1719 109.5625,22.8906 L109.5625,24.0156 C109.5625,26.5938 111.6719,28.4844 114.5625,28.4844 C115.7813,28.4844 116.9375,28.1875 117.6875,27.6406 C118.2656,27.2344 118.5938,26.7813 118.5938,26.3906 C118.5938,25.9375 118.2031,25.5469 117.7344,25.5469 C117.5156,25.5469 117.3125,25.625 117.125,25.8125 C116.6719,26.2969 116.6719,26.2969 116.4844,26.3906 C116.0625,26.6563 115.375,26.7813 114.6094,26.7813 C112.5625,26.7813 111.2656,25.6875 111.2656,23.9844 L111.2656,22.8906 C111.2656,21.1094 112.5156,19.7969 114.25,19.7969 C114.8281,19.7969 115.4375,19.9531 115.9063,20.2031 C116.3906,20.4844 116.5625,20.7031 116.6563,21.1094 C116.7188,21.5156 116.75,21.6406 116.8906,21.7656 C117.0313,21.9063 117.2656,22.0156 117.4844,22.0156 C117.75,22.0156 118.0156,21.875 118.1875,21.6563 C118.2969,21.5 118.3281,21.3125 118.3281,20.8906 L118.3281,19.4688 C118.3281,19.0313 118.3125,18.9063 118.2188,18.75 C118.0625,18.4844 117.7813,18.3438 117.4844,18.3438 C117.1875,18.3438 116.9844,18.4375 116.7656,18.75 L116.5938,18.6719 Z " fill="#FFFFFF"/><text fill="#FFFFFF" font-family="sans-serif" font-size="12" lengthAdjust="spacing" textLength="29" x="134.75" y="27.1543">Train</text><line style="stroke:#C7C7C7;stroke-width:1.5;" x1="8" x2="258" y1="39" y2="39"/><rect fill="none" height="6" style="stroke:#A6A6A6;stroke-width:1.0;" width="6" x="15" y="47"/><text fill="#FFFFFF" font-family="sans-serif" font-size="11" lengthAdjust="spacing" textLength="60" x="27" y="53.2104">title: string</text><line style="stroke:#C7C7C7;stroke-width:1.5;" x1="8" x2="258" y1="59.8047" y2="59.8047"/><ellipse cx="18" cy="70.8047" fill="#595959" rx="3" ry="3" style="stroke:#ABABAB;stroke-width:1.0;"/><text fill="#FFFFFF" font-family="sans-serif" font-size="11" lengthAdjust="spacing" textLength="90" x="27" y="74.0151">getTitle(): string</text><ellipse cx="18" cy="83.6094" fill="#595959" rx="3" ry="3" style="stroke:#ABABAB;stroke-width:1.0;"/><text fill="#FFFFFF" font-family="sans-serif" font-size="11" lengthAdjust="spacing" textLength="186" x="27" y="86.8198">getComponents(): Components[]</text><ellipse cx="18" cy="96.4141" fill="#595959" rx="3" ry="3" style="stroke:#ABABAB;stroke-width:1.0;"/><text fill="#FFFFFF" font-family="sans-serif" font-size="11" lengthAdjust="spacing" textLength="202" x="27" y="99.6245">addComponent(Component c): void</text><ellipse cx="18" cy="109.2188" fill="#595959" rx="3" ry="3" style="stroke:#ABABAB;stroke-width:1.0;"/><text fill="#FFFFFF" font-family="sans-serif" font-size="11" lengthAdjust="spacing" textLength="226" x="27" y="112.4292">removeComponent(Component c): void</text><!--MD5=[4296a1ab0576a383a1a509d52c22ebf0]
class Type--><rect codeLine="11" fill="#070707" filter="url(#f6naaw4y9buhc)" height="176.0469" id="Type" style="stroke:#C7C7C7;stroke-width:1.5;" width="252" x="7" y="385"/><ellipse cx="113.75" cy="401" fill="#3D3D3D" rx="11" ry="11" style="stroke:#C7C7C7;stroke-width:1.0;"/><path d="M116.0938,396.6719 C115.1563,396.2344 114.5625,396.0938 113.6875,396.0938 C111.0625,396.0938 109.0625,398.1719 109.0625,400.8906 L109.0625,402.0156 C109.0625,404.5938 111.1719,406.4844 114.0625,406.4844 C115.2813,406.4844 116.4375,406.1875 117.1875,405.6406 C117.7656,405.2344 118.0938,404.7813 118.0938,404.3906 C118.0938,403.9375 117.7031,403.5469 117.2344,403.5469 C117.0156,403.5469 116.8125,403.625 116.625,403.8125 C116.1719,404.2969 116.1719,404.2969 115.9844,404.3906 C115.5625,404.6563 114.875,404.7813 114.1094,404.7813 C112.0625,404.7813 110.7656,403.6875 110.7656,401.9844 L110.7656,400.8906 C110.7656,399.1094 112.0156,397.7969 113.75,397.7969 C114.3281,397.7969 114.9375,397.9531 115.4063,398.2031 C115.8906,398.4844 116.0625,398.7031 116.1563,399.1094 C116.2188,399.5156 116.25,399.6406 116.3906,399.7656 C116.5313,399.9063 116.7656,400.0156 116.9844,400.0156 C117.25,400.0156 117.5156,399.875 117.6875,399.6563 C117.7969,399.5 117.8281,399.3125 117.8281,398.8906 L117.8281,397.4688 C117.8281,397.0313 117.8125,396.9063 117.7188,396.75 C117.5625,396.4844 117.2813,396.3438 116.9844,396.3438 C116.6875,396.3438 116.4844,396.4375 116.2656,396.75 L116.0938,396.6719 Z " fill="#FFFFFF"/><text fill="#FFFFFF" font-family="sans-serif" font-size="12" lengthAdjust="spacing" textLength="30" x="134.25" y="405.1543">Type</text><line style="stroke:#C7C7C7;stroke-width:1.5;" x1="8" x2="258" y1="417" y2="417"/><rect fill="none" height="6" style="stroke:#A6A6A6;stroke-width:1.0;" width="6" x="15" y="425"/><text fill="#FFFFFF" font-family="sans-serif" font-size="11" lengthAdjust="spacing" textLength="60" x="27" y="431.2104">title: string</text><rect fill="none" height="6" style="stroke:#A6A6A6;stroke-width:1.0;" width="6" x="15" y="437.8047"/><text fill="#FFFFFF" font-family="sans-serif" font-size="11" lengthAdjust="spacing" textLength="111" x="27" y="444.0151">numberOfSeats: int</text><rect fill="none" height="6" style="stroke:#A6A6A6;stroke-width:1.0;" width="6" x="15" y="450.6094"/><text fill="#FFFFFF" font-family="sans-serif" font-size="11" lengthAdjust="spacing" textLength="115" x="27" y="456.8198">payloadCapacity: int</text><line style="stroke:#C7C7C7;stroke-width:1.5;" x1="8" x2="258" y1="463.4141" y2="463.4141"/><ellipse cx="18" cy="474.4141" fill="#595959" rx="3" ry="3" style="stroke:#ABABAB;stroke-width:1.0;"/><text fill="#FFFFFF" font-family="sans-serif" font-size="11" lengthAdjust="spacing" textLength="90" x="27" y="477.6245">getTitle(): string</text><ellipse cx="18" cy="487.2188" fill="#595959" rx="3" ry="3" style="stroke:#ABABAB;stroke-width:1.0;"/><text fill="#FFFFFF" font-family="sans-serif" font-size="11" lengthAdjust="spacing" textLength="180" x="27" y="490.4292">getComponents(): Component[]</text><ellipse cx="18" cy="500.0234" fill="#595959" rx="3" ry="3" style="stroke:#ABABAB;stroke-width:1.0;"/><text fill="#FFFFFF" font-family="sans-serif" font-size="11" lengthAdjust="spacing" textLength="202" x="27" y="503.2339">addComponent(Component c): void</text><ellipse cx="18" cy="512.8281" fill="#595959" rx="3" ry="3" style="stroke:#ABABAB;stroke-width:1.0;"/><text fill="#FFFFFF" font-family="sans-serif" font-size="11" lengthAdjust="spacing" textLength="226" x="27" y="516.0386">removeComponent(Component c): void</text><ellipse cx="18" cy="525.6328" fill="#595959" rx="3" ry="3" style="stroke:#ABABAB;stroke-width:1.0;"/><text fill="#FFFFFF" font-family="sans-serif" font-size="11" lengthAdjust="spacing" textLength="175" x="27" y="528.8433">getAttributes(): TypeAttribute[]</text><ellipse cx="18" cy="538.4375" fill="#595959" rx="3" ry="3" style="stroke:#ABABAB;stroke-width:1.0;"/><text fill="#FFFFFF" font-family="sans-serif" font-size="11" lengthAdjust="spacing" textLength="197" x="27" y="541.6479">addAttribute(TypeAttribute c): void</text><ellipse cx="18" cy="551.2422" fill="#595959" rx="3" ry="3" style="stroke:#ABABAB;stroke-width:1.0;"/><text fill="#FFFFFF" font-family="sans-serif" font-size="11" lengthAdjust="spacing" textLength="221" x="27" y="554.4526">removeAttribute(TypeAttribute c): void</text><!--MD5=[c27cb63b71ffa46f1c79387efa211e9d]
class TypeAttribute--><rect codeLine="24" fill="#070707" filter="url(#f6naaw4y9buhc)" height="124.8281" id="TypeAttribute" style="stroke:#C7C7C7;stroke-width:1.5;" width="182" x="180" y="638"/><ellipse cx="226.25" cy="654" fill="#3D3D3D" rx="11" ry="11" style="stroke:#C7C7C7;stroke-width:1.0;"/><path d="M228.5938,649.6719 C227.6563,649.2344 227.0625,649.0938 226.1875,649.0938 C223.5625,649.0938 221.5625,651.1719 221.5625,653.8906 L221.5625,655.0156 C221.5625,657.5938 223.6719,659.4844 226.5625,659.4844 C227.7813,659.4844 228.9375,659.1875 229.6875,658.6406 C230.2656,658.2344 230.5938,657.7813 230.5938,657.3906 C230.5938,656.9375 230.2031,656.5469 229.7344,656.5469 C229.5156,656.5469 229.3125,656.625 229.125,656.8125 C228.6719,657.2969 228.6719,657.2969 228.4844,657.3906 C228.0625,657.6563 227.375,657.7813 226.6094,657.7813 C224.5625,657.7813 223.2656,656.6875 223.2656,654.9844 L223.2656,653.8906 C223.2656,652.1094 224.5156,650.7969 226.25,650.7969 C226.8281,650.7969 227.4375,650.9531 227.9063,651.2031 C228.3906,651.4844 228.5625,651.7031 228.6563,652.1094 C228.7188,652.5156 228.75,652.6406 228.8906,652.7656 C229.0313,652.9063 229.2656,653.0156 229.4844,653.0156 C229.75,653.0156 230.0156,652.875 230.1875,652.6563 C230.2969,652.5 230.3281,652.3125 230.3281,651.8906 L230.3281,650.4688 C230.3281,650.0313 230.3125,649.9063 230.2188,649.75 C230.0625,649.4844 229.7813,649.3438 229.4844,649.3438 C229.1875,649.3438 228.9844,649.4375 228.7656,649.75 L228.5938,649.6719 Z " fill="#FFFFFF"/><text fill="#FFFFFF" font-family="sans-serif" font-size="12" lengthAdjust="spacing" textLength="81" x="246.75" y="658.1543">TypeAttribute</text><line style="stroke:#C7C7C7;stroke-width:1.5;" x1="181" x2="361" y1="670" y2="670"/><rect fill="none" height="6" style="stroke:#A6A6A6;stroke-width:1.0;" width="6" x="188" y="678"/><text fill="#FFFFFF" font-family="sans-serif" font-size="11" lengthAdjust="spacing" textLength="70" x="200" y="684.2104">value: string</text><rect fill="none" height="6" style="stroke:#A6A6A6;stroke-width:1.0;" width="6" x="188" y="690.8047"/><text fill="#FFFFFF" font-family="sans-serif" font-size="11" lengthAdjust="spacing" textLength="62" x="200" y="697.0151">type: Type</text><rect fill="none" height="6" style="stroke:#A6A6A6;stroke-width:1.0;" width="6" x="188" y="703.6094"/><text fill="#FFFFFF" font-family="sans-serif" font-size="11" lengthAdjust="spacing" textLength="128" x="200" y="709.8198">key: TypeAttributeKey</text><line style="stroke:#C7C7C7;stroke-width:1.5;" x1="181" x2="361" y1="716.4141" y2="716.4141"/><ellipse cx="191" cy="727.4141" fill="#595959" rx="3" ry="3" style="stroke:#ABABAB;stroke-width:1.0;"/><text fill="#FFFFFF" font-family="sans-serif" font-size="11" lengthAdjust="spacing" textLength="98" x="200" y="730.6245">getValue(): string</text><ellipse cx="191" cy="740.2188" fill="#595959" rx="3" ry="3" style="stroke:#ABABAB;stroke-width:1.0;"/><text fill="#FFFFFF" font-family="sans-serif" font-size="11" lengthAdjust="spacing" textLength="92" x="200" y="743.4292">getType(): Type</text><ellipse cx="191" cy="753.0234" fill="#595959" rx="3" ry="3" style="stroke:#ABABAB;stroke-width:1.0;"/><text fill="#FFFFFF" font-family="sans-serif" font-size="11" lengthAdjust="spacing" textLength="156" x="200" y="756.2339">getKey(): TypeAttributeKey</text><!--MD5=[666a38de2259527e2a1a4c623aed529d]
class TypeAttributeKey--><rect codeLine="33" fill="#070707" filter="url(#f6naaw4y9buhc)" height="99.2188" id="TypeAttributeKey" style="stroke:#C7C7C7;stroke-width:1.5;" width="178" x="294" y="423.5"/><ellipse cx="327.9" cy="439.5" fill="#3D3D3D" rx="11" ry="11" style="stroke:#C7C7C7;stroke-width:1.0;"/><path d="M330.2438,435.1719 C329.3063,434.7344 328.7125,434.5938 327.8375,434.5938 C325.2125,434.5938 323.2125,436.6719 323.2125,439.3906 L323.2125,440.5156 C323.2125,443.0938 325.3219,444.9844 328.2125,444.9844 C329.4313,444.9844 330.5875,444.6875 331.3375,444.1406 C331.9156,443.7344 332.2438,443.2813 332.2438,442.8906 C332.2438,442.4375 331.8531,442.0469 331.3844,442.0469 C331.1656,442.0469 330.9625,442.125 330.775,442.3125 C330.3219,442.7969 330.3219,442.7969 330.1344,442.8906 C329.7125,443.1563 329.025,443.2813 328.2594,443.2813 C326.2125,443.2813 324.9156,442.1875 324.9156,440.4844 L324.9156,439.3906 C324.9156,437.6094 326.1656,436.2969 327.9,436.2969 C328.4781,436.2969 329.0875,436.4531 329.5563,436.7031 C330.0406,436.9844 330.2125,437.2031 330.3063,437.6094 C330.3688,438.0156 330.4,438.1406 330.5406,438.2656 C330.6813,438.4063 330.9156,438.5156 331.1344,438.5156 C331.4,438.5156 331.6656,438.375 331.8375,438.1563 C331.9469,438 331.9781,437.8125 331.9781,437.3906 L331.9781,435.9688 C331.9781,435.5313 331.9625,435.4063 331.8688,435.25 C331.7125,434.9844 331.4313,434.8438 331.1344,434.8438 C330.8375,434.8438 330.6344,434.9375 330.4156,435.25 L330.2438,435.1719 Z " fill="#FFFFFF"/><text fill="#FFFFFF" font-family="sans-serif" font-size="12" lengthAdjust="spacing" textLength="104" x="346.1" y="443.6543">TypeAttributeKey</text><line style="stroke:#C7C7C7;stroke-width:1.5;" x1="295" x2="471" y1="455.5" y2="455.5"/><rect fill="none" height="6" style="stroke:#A6A6A6;stroke-width:1.0;" width="6" x="302" y="463.5"/><text fill="#FFFFFF" font-family="sans-serif" font-size="11" lengthAdjust="spacing" textLength="60" x="314" y="469.7104">title: string</text><rect fill="none" height="6" style="stroke:#A6A6A6;stroke-width:1.0;" width="6" x="302" y="476.3047"/><text fill="#FFFFFF" font-family="sans-serif" font-size="11" lengthAdjust="spacing" textLength="124" x="314" y="482.5151">attributes: Attributes[]</text><line style="stroke:#C7C7C7;stroke-width:1.5;" x1="295" x2="471" y1="489.1094" y2="489.1094"/><ellipse cx="305" cy="500.1094" fill="#595959" rx="3" ry="3" style="stroke:#ABABAB;stroke-width:1.0;"/><text fill="#FFFFFF" font-family="sans-serif" font-size="11" lengthAdjust="spacing" textLength="90" x="314" y="503.3198">getTitle(): string</text><ellipse cx="305" cy="512.9141" fill="#595959" rx="3" ry="3" style="stroke:#ABABAB;stroke-width:1.0;"/><text fill="#FFFFFF" font-family="sans-serif" font-size="11" lengthAdjust="spacing" textLength="152" x="314" y="516.1245">getAttributes(): Attributes[]</text><!--MD5=[4e13963c9dc916a21a8436ef39422b32]
class Component--><rect codeLine="40" fill="#070707" filter="url(#f6naaw4y9buhc)" height="112.0234" id="Component" style="stroke:#C7C7C7;stroke-width:1.5;" width="118" x="74" y="196"/><ellipse cx="96.65" cy="212" fill="#3D3D3D" rx="11" ry="11" style="stroke:#C7C7C7;stroke-width:1.0;"/><path d="M98.9938,207.6719 C98.0563,207.2344 97.4625,207.0938 96.5875,207.0938 C93.9625,207.0938 91.9625,209.1719 91.9625,211.8906 L91.9625,213.0156 C91.9625,215.5938 94.0719,217.4844 96.9625,217.4844 C98.1813,217.4844 99.3375,217.1875 100.0875,216.6406 C100.6656,216.2344 100.9938,215.7813 100.9938,215.3906 C100.9938,214.9375 100.6031,214.5469 100.1344,214.5469 C99.9156,214.5469 99.7125,214.625 99.525,214.8125 C99.0719,215.2969 99.0719,215.2969 98.8844,215.3906 C98.4625,215.6563 97.775,215.7813 97.0094,215.7813 C94.9625,215.7813 93.6656,214.6875 93.6656,212.9844 L93.6656,211.8906 C93.6656,210.1094 94.9156,208.7969 96.65,208.7969 C97.2281,208.7969 97.8375,208.9531 98.3063,209.2031 C98.7906,209.4844 98.9625,209.7031 99.0563,210.1094 C99.1188,210.5156 99.15,210.6406 99.2906,210.7656 C99.4313,210.9063 99.6656,211.0156 99.8844,211.0156 C100.15,211.0156 100.4156,210.875 100.5875,210.6563 C100.6969,210.5 100.7281,210.3125 100.7281,209.8906 L100.7281,208.4688 C100.7281,208.0313 100.7125,207.9063 100.6188,207.75 C100.4625,207.4844 100.1813,207.3438 99.8844,207.3438 C99.5875,207.3438 99.3844,207.4375 99.1656,207.75 L98.9938,207.6719 Z " fill="#FFFFFF"/><text fill="#FFFFFF" font-family="sans-serif" font-size="12" lengthAdjust="spacing" textLength="69" x="112.35" y="216.1543">Component</text><line style="stroke:#C7C7C7;stroke-width:1.5;" x1="75" x2="191" y1="228" y2="228"/><rect fill="none" height="6" style="stroke:#A6A6A6;stroke-width:1.0;" width="6" x="82" y="236"/><text fill="#FFFFFF" font-family="sans-serif" font-size="11" lengthAdjust="spacing" textLength="45" x="94" y="242.2104">spot: int</text><line style="stroke:#C7C7C7;stroke-width:1.5;" x1="75" x2="191" y1="248.8047" y2="248.8047"/><ellipse cx="85" cy="259.8047" fill="#595959" rx="3" ry="3" style="stroke:#ABABAB;stroke-width:1.0;"/><text fill="#FFFFFF" font-family="sans-serif" font-size="11" lengthAdjust="spacing" textLength="74" x="94" y="263.0151">getSpot(): int</text><ellipse cx="85" cy="272.6094" fill="#595959" rx="3" ry="3" style="stroke:#ABABAB;stroke-width:1.0;"/><text fill="#FFFFFF" font-family="sans-serif" font-size="11" lengthAdjust="spacing" textLength="90" x="94" y="275.8198">getTrain(): Train</text><ellipse cx="85" cy="285.4141" fill="#595959" rx="3" ry="3" style="stroke:#ABABAB;stroke-width:1.0;"/><text fill="#FFFFFF" font-family="sans-serif" font-size="11" lengthAdjust="spacing" textLength="89" x="94" y="288.6245">setTrain(): Train</text><ellipse cx="85" cy="298.2188" fill="#595959" rx="3" ry="3" style="stroke:#ABABAB;stroke-width:1.0;"/><text fill="#FFFFFF" font-family="sans-serif" font-size="11" lengthAdjust="spacing" textLength="92" x="94" y="301.4292">getType(): Type</text><!--MD5=[34f4d172018e4a9fba0401489209d956]
link Train to Component--><path codeLine="48" d="M133,119.095 C133,141.631 133,167.77 133,190.806 " fill="none" id="Train-to-Component" style="stroke:#C7C7C7;stroke-width:1.0;"/><polygon fill="#C7C7C7" points="133,195.976,137,186.976,133,190.976,129,186.976,133,195.976" style="stroke:#C7C7C7;stroke-width:1.0;"/><rect fill="none" height="6" style="stroke:#A6A6A6;stroke-width:1.0;" width="6" x="136" y="155.0664"/><text fill="#FFFFFF" font-family="sans-serif" font-size="13" lengthAdjust="spacing" textLength="181" x="146" y="162.0669">components: Components[]</text><!--MD5=[075d5c60b9ef118906048290d9b82809]
link Component to Type--><path codeLine="49" d="M133,308.263 C133,329.912 133,355.344 133,379.625 " fill="none" id="Component-to-Type" style="stroke:#C7C7C7;stroke-width:1.0;"/><polygon fill="#C7C7C7" points="133,384.787,137,375.787,133,379.787,129,375.787,133,384.787" style="stroke:#C7C7C7;stroke-width:1.0;"/><rect fill="none" height="6" style="stroke:#A6A6A6;stroke-width:1.0;" width="6" x="136" y="344.0664"/><text fill="#FFFFFF" font-family="sans-serif" font-size="13" lengthAdjust="spacing" textLength="70" x="146" y="351.0669">type: Type</text><!--MD5=[2c76c11e04f75b8281808617d6c85d85]
link Type to TypeAttribute--><path codeLine="50" d="M140.838,561.224 C144.772,577.525 150.55,593.863 159,608 C164.48,617.168 171.231,625.816 178.68,633.863 " fill="none" id="Type-to-TypeAttribute" style="stroke:#C7C7C7;stroke-width:1.0;"/><polygon fill="#C7C7C7" points="182.39,637.765,179.0859,628.4869,178.9442,634.142,173.2891,634.0003,182.39,637.765" style="stroke:#C7C7C7;stroke-width:1.0;"/><rect fill="none" height="6" style="stroke:#A6A6A6;stroke-width:1.0;" width="6" x="162" y="597.0664"/><text fill="#FFFFFF" font-family="sans-serif" font-size="13" lengthAdjust="spacing" textLength="144" x="172" y="604.0669">attributes: Attributes[]</text><!--MD5=[f88ccd61b29bd576cbbfb8c461ddda76]
link TypeAttributeKey to TypeAttribute--><path codeLine="51" d="M363.624,522.738 C352.972,548.453 339.086,580.325 325,608 C320.835,616.183 316.247,624.644 311.56,632.965 " fill="none" id="TypeAttributeKey-to-TypeAttribute" style="stroke:#C7C7C7;stroke-width:1.0;"/><polygon fill="#C7C7C7" points="308.947,637.57,316.8672,631.7159,311.4143,633.2212,309.9091,627.7682,308.947,637.57" style="stroke:#C7C7C7;stroke-width:1.0;"/><rect fill="none" height="6" style="stroke:#A6A6A6;stroke-width:1.0;" width="6" x="335" y="597.0664"/><text fill="#FFFFFF" font-family="sans-serif" font-size="13" lengthAdjust="spacing" textLength="144" x="345" y="604.0669">attributes: Attributes[]</text><!--MD5=[fa8572b3a56669fc088ae9eef8861693]
@startuml
skinparam monochrome reverse

class Train {
  - title: string
  + getTitle(): string
  + getComponents(): Components[]
  + addComponent(Component c): void
  + removeComponent(Component c): void
}

class Type {
  - title: string
  - numberOfSeats: int
  - payloadCapacity: int
  + getTitle(): string
  + getComponents(): Component[]
  + addComponent(Component c): void
  + removeComponent(Component c): void
  + getAttributes(): TypeAttribute[]
  + addAttribute(TypeAttribute c): void
  + removeAttribute(TypeAttribute c): void
}

class TypeAttribute {
  - value: string
  - type: Type
  - key: TypeAttributeKey
  + getValue(): string
  + getType(): Type
  + getKey(): TypeAttributeKey
}

class TypeAttributeKey {
  - title: string
  - attributes: Attributes[]
  + getTitle(): string
  + getAttributes(): Attributes[]
}

class Component {
  - spot: int
  + getSpot(): int
  + getTrain(): Train
  + setTrain(): Train
  + getType(): Type
}

Train - -> Component: - components: Components[]
Component - -> Type: - type: Type
Type - -> TypeAttribute: - attributes: Attributes[]
TypeAttributeKey - -> TypeAttribute: - attributes: Attributes[]
@enduml

PlantUML version 1.2021.4(Sun Apr 04 08:49:39 UTC 2021)
(GPL source distribution)
Java Runtime: Java(TM) SE Runtime Environment
JVM: Java HotSpot(TM) 64-Bit Server VM
Default Encoding: UTF-8
Language: en
Country: US
--></g></svg>